<svg width="169" height="48" viewBox="0 0 169 48" fill="none" xmlns="http://www.w3.org/2000/svg">
<rect x="0.5" y="0.5" width="168" height="47" rx="4.5" stroke="black"/>
<path d="M60.8345 29.192C59.7785 29.192 58.8558 28.952 58.0665 28.472C57.2771 27.992 56.6638 27.32 56.2265 26.456C55.7891 25.592 55.5705 24.584 55.5705 23.432C55.5705 22.2907 55.7945 21.2827 56.2425 20.408C56.6905 19.5333 57.3251 18.8507 58.1465 18.36C58.9785 17.8587 59.9598 17.608 61.0905 17.608C62.3705 17.608 63.4371 17.9173 64.2905 18.536C65.1438 19.1547 65.6985 20.008 65.9545 21.096H64.0345C63.8638 20.4987 63.5278 20.0293 63.0265 19.688C62.5251 19.3467 61.8798 19.176 61.0905 19.176C59.9171 19.176 58.9945 19.5547 58.3225 20.312C57.6505 21.0693 57.3145 22.1147 57.3145 23.448C57.3145 24.7813 57.6451 25.8213 58.3065 26.568C58.9678 27.3147 59.8478 27.688 60.9465 27.688C62.0558 27.688 62.8878 27.3733 63.4425 26.744C64.0078 26.1147 64.3385 25.2773 64.4345 24.232H61.3945V22.92H66.1465V29H64.5945L64.4505 27.352C64.0771 27.9387 63.6078 28.392 63.0425 28.712C62.4771 29.032 61.7411 29.192 60.8345 29.192ZM69.2508 19.56C68.9308 19.56 68.6642 19.464 68.4508 19.272C68.2482 19.0693 68.1468 18.8187 68.1468 18.52C68.1468 18.2213 68.2482 17.976 68.4508 17.784C68.6642 17.5813 68.9308 17.48 69.2508 17.48C69.5708 17.48 69.8322 17.5813 70.0348 17.784C70.2482 17.976 70.3548 18.2213 70.3548 18.52C70.3548 18.8187 70.2482 19.0693 70.0348 19.272C69.8322 19.464 69.5708 19.56 69.2508 19.56ZM68.4028 29V21.064H70.0988V29H68.4028ZM75.8157 29C75.0371 29 74.4184 28.8133 73.9597 28.44C73.5011 28.056 73.2717 27.3787 73.2717 26.408V22.488H71.9117V21.064H73.2717L73.4797 19.048H74.9677V21.064H77.2077V22.488H74.9677V26.408C74.9677 26.8453 75.0584 27.1493 75.2397 27.32C75.4317 27.48 75.7571 27.56 76.2157 27.56H77.1277V29H75.8157ZM79.1705 29V17.8H80.8665V22.6H86.2905V17.8H87.9865V29H86.2905V23.992H80.8665V29H79.1705ZM93.2782 29.192C92.3182 29.192 91.5609 28.8933 91.0062 28.296C90.4622 27.6987 90.1902 26.808 90.1902 25.624V21.064H91.8862V25.448C91.8862 26.984 92.5156 27.752 93.7742 27.752C94.4036 27.752 94.9209 27.528 95.3262 27.08C95.7316 26.632 95.9342 25.992 95.9342 25.16V21.064H97.6302V29H96.1262L95.9982 27.608C95.7529 28.0987 95.3902 28.488 94.9102 28.776C94.4409 29.0533 93.8969 29.192 93.2782 29.192ZM104.402 29.192C103.783 29.192 103.234 29.0693 102.754 28.824C102.284 28.5787 101.911 28.232 101.634 27.784L101.458 29H99.9377V17.48H101.634V22.296C101.89 21.9227 102.242 21.592 102.69 21.304C103.138 21.016 103.714 20.872 104.418 20.872C105.186 20.872 105.863 21.0533 106.45 21.416C107.036 21.7787 107.495 22.2747 107.826 22.904C108.167 23.5333 108.338 24.248 108.338 25.048C108.338 25.848 108.167 26.5627 107.826 27.192C107.495 27.8107 107.036 28.3013 106.45 28.664C105.863 29.016 105.18 29.192 104.402 29.192ZM104.114 27.72C104.839 27.72 105.436 27.4747 105.906 26.984C106.375 26.4827 106.61 25.832 106.61 25.032C106.61 24.5093 106.503 24.0453 106.29 23.64C106.076 23.2347 105.783 22.92 105.41 22.696C105.036 22.4613 104.604 22.344 104.114 22.344C103.388 22.344 102.791 22.5947 102.322 23.096C101.863 23.5973 101.634 24.2427 101.634 25.032C101.634 25.832 101.863 26.4827 102.322 26.984C102.791 27.4747 103.388 27.72 104.114 27.72ZM114.503 29V21.064H116.023L116.167 22.568C116.445 22.0453 116.829 21.6347 117.319 21.336C117.821 21.0267 118.423 20.872 119.127 20.872V22.648H118.663C118.194 22.648 117.773 22.728 117.399 22.888C117.037 23.0373 116.743 23.2987 116.519 23.672C116.306 24.0347 116.199 24.5413 116.199 25.192V29H114.503ZM124.225 29.192C123.446 29.192 122.753 29.0213 122.145 28.68C121.547 28.328 121.078 27.8427 120.737 27.224C120.395 26.6053 120.225 25.8853 120.225 25.064C120.225 24.232 120.39 23.5013 120.721 22.872C121.062 22.2427 121.531 21.752 122.129 21.4C122.737 21.048 123.441 20.872 124.241 20.872C125.019 20.872 125.697 21.048 126.273 21.4C126.849 21.7413 127.297 22.2 127.617 22.776C127.937 23.352 128.097 23.9867 128.097 24.68C128.097 24.7867 128.091 24.904 128.081 25.032C128.081 25.1493 128.075 25.2827 128.065 25.432H121.889C121.942 26.2 122.193 26.7867 122.641 27.192C123.099 27.5867 123.627 27.784 124.225 27.784C124.705 27.784 125.105 27.6773 125.425 27.464C125.755 27.24 126.001 26.9413 126.161 26.568H127.857C127.643 27.3147 127.217 27.9387 126.577 28.44C125.947 28.9413 125.163 29.192 124.225 29.192ZM124.225 22.264C123.659 22.264 123.158 22.4347 122.721 22.776C122.283 23.1067 122.017 23.608 121.921 24.28H126.401C126.369 23.6613 126.15 23.1707 125.745 22.808C125.339 22.4453 124.833 22.264 124.225 22.264ZM130.006 32.52V21.064H131.526L131.702 22.296C131.958 21.9227 132.31 21.592 132.758 21.304C133.206 21.016 133.782 20.872 134.486 20.872C135.254 20.872 135.932 21.0533 136.518 21.416C137.105 21.7787 137.564 22.2747 137.894 22.904C138.236 23.5333 138.406 24.248 138.406 25.048C138.406 25.848 138.236 26.5627 137.894 27.192C137.564 27.8107 137.105 28.3013 136.518 28.664C135.932 29.016 135.249 29.192 134.47 29.192C133.852 29.192 133.302 29.0693 132.822 28.824C132.353 28.5787 131.98 28.232 131.702 27.784V32.52H130.006ZM134.182 27.72C134.908 27.72 135.505 27.4747 135.974 26.984C136.444 26.4827 136.678 25.832 136.678 25.032C136.678 24.5093 136.572 24.0453 136.358 23.64C136.145 23.2347 135.852 22.92 135.478 22.696C135.105 22.4613 134.673 22.344 134.182 22.344C133.457 22.344 132.86 22.5947 132.39 23.096C131.932 23.5973 131.702 24.2427 131.702 25.032C131.702 25.832 131.932 26.4827 132.39 26.984C132.86 27.4747 133.457 27.72 134.182 27.72ZM144.103 29.192C143.346 29.192 142.663 29.0213 142.055 28.68C141.458 28.328 140.983 27.8427 140.631 27.224C140.279 26.5947 140.103 25.864 140.103 25.032C140.103 24.2 140.279 23.4747 140.631 22.856C140.994 22.2267 141.479 21.7413 142.087 21.4C142.695 21.048 143.372 20.872 144.119 20.872C144.876 20.872 145.554 21.048 146.151 21.4C146.759 21.7413 147.239 22.2267 147.591 22.856C147.954 23.4747 148.135 24.2 148.135 25.032C148.135 25.864 147.954 26.5947 147.591 27.224C147.239 27.8427 146.759 28.328 146.151 28.68C145.543 29.0213 144.86 29.192 144.103 29.192ZM144.103 27.736C144.508 27.736 144.882 27.6347 145.223 27.432C145.575 27.2293 145.858 26.9307 146.071 26.536C146.284 26.1307 146.391 25.6293 146.391 25.032C146.391 24.4347 146.284 23.9387 146.071 23.544C145.868 23.1387 145.591 22.8347 145.239 22.632C144.898 22.4293 144.524 22.328 144.119 22.328C143.714 22.328 143.335 22.4293 142.983 22.632C142.642 22.8347 142.364 23.1387 142.151 23.544C141.938 23.9387 141.831 24.4347 141.831 25.032C141.831 25.6293 141.938 26.1307 142.151 26.536C142.364 26.9307 142.642 27.2293 142.983 27.432C143.324 27.6347 143.698 27.736 144.103 27.736Z" fill="black"/>
<path d="M28.0274 30.8419C28.0274 30.9387 27.9161 31.0161 27.7758 31.0161C27.6161 31.0306 27.5048 30.9532 27.5048 30.8419C27.5048 30.7452 27.6161 30.6677 27.7565 30.6677C27.9016 30.6532 28.0274 30.7306 28.0274 30.8419ZM26.5226 30.6242C26.4887 30.721 26.5855 30.8323 26.7306 30.8613C26.8565 30.9097 27.0016 30.8613 27.0306 30.7645C27.0597 30.6677 26.9677 30.5565 26.8226 30.5129C26.6968 30.479 26.5565 30.5274 26.5226 30.6242ZM28.6613 30.5419C28.521 30.5758 28.4242 30.6677 28.4387 30.779C28.4532 30.8758 28.579 30.9387 28.7242 30.9048C28.8645 30.871 28.9613 30.779 28.9468 30.6823C28.9323 30.5903 28.8016 30.5274 28.6613 30.5419ZM31.8452 12C25.1339 12 20 17.0952 20 23.8065C20 29.1726 23.3774 33.7645 28.2016 35.3806C28.821 35.4919 29.0387 35.1097 29.0387 34.7952C29.0387 34.4952 29.0242 32.8403 29.0242 31.8242C29.0242 31.8242 25.6371 32.55 24.9258 30.3823C24.9258 30.3823 24.3742 28.9742 23.5806 28.6113C23.5806 28.6113 22.4726 27.8516 23.6581 27.8661C23.6581 27.8661 24.8629 27.9629 25.5258 29.1145C26.5855 30.9823 28.3613 30.4452 29.0532 30.1258C29.1645 29.3516 29.479 28.8145 29.8274 28.4952C27.1226 28.1952 24.3935 27.8032 24.3935 23.1484C24.3935 21.8177 24.7613 21.15 25.5355 20.2984C25.4097 19.9839 24.9984 18.6871 25.6613 17.0129C26.6726 16.6984 29 18.3194 29 18.3194C29.9677 18.0484 31.0081 17.9081 32.0387 17.9081C33.0694 17.9081 34.1097 18.0484 35.0774 18.3194C35.0774 18.3194 37.4048 16.6935 38.4161 17.0129C39.079 18.6919 38.6677 19.9839 38.5419 20.2984C39.3161 21.1548 39.7903 21.8226 39.7903 23.1484C39.7903 27.8177 36.9403 28.1903 34.2355 28.4952C34.6806 28.8774 35.0581 29.6032 35.0581 30.7403C35.0581 32.371 35.0435 34.3887 35.0435 34.7855C35.0435 35.1 35.2661 35.4823 35.8806 35.371C40.7194 33.7645 44 29.1726 44 23.8065C44 17.0952 38.5565 12 31.8452 12ZM24.7032 28.6887C24.6403 28.7371 24.6548 28.8484 24.7371 28.9403C24.8145 29.0177 24.9258 29.0516 24.9887 28.9887C25.0516 28.9403 25.0371 28.829 24.9548 28.7371C24.8774 28.6597 24.7661 28.6258 24.7032 28.6887ZM24.1806 28.2968C24.1468 28.3597 24.1952 28.4371 24.2919 28.4855C24.3694 28.5339 24.4661 28.5194 24.5 28.4516C24.5339 28.3887 24.4855 28.3113 24.3887 28.2629C24.2919 28.2339 24.2145 28.2484 24.1806 28.2968ZM25.7484 30.0194C25.671 30.0823 25.7 30.2274 25.8113 30.3194C25.9226 30.4306 26.0629 30.4452 26.1258 30.3677C26.1887 30.3048 26.1597 30.1597 26.0629 30.0677C25.9565 29.9565 25.8113 29.9419 25.7484 30.0194ZM25.1968 29.3081C25.1194 29.3565 25.1194 29.4823 25.1968 29.5935C25.2742 29.7048 25.4048 29.7532 25.4677 29.7048C25.5452 29.6419 25.5452 29.5161 25.4677 29.4048C25.4 29.2935 25.2742 29.2452 25.1968 29.3081Z" fill="black"/>
</svg>
