<svg width="38" height="38" viewBox="0 0 38 38" fill="none" xmlns="http://www.w3.org/2000/svg">
<g clip-path="url(#clip0_9_28)">
<path d="M31.1571 7.19686L5.34881 17.1719C3.60714 17.8052 3.60714 18.9135 5.03214 19.2302L11.5238 21.2885L14.0571 28.8885C14.3738 29.6802 14.2155 29.9969 15.0071 29.9969C15.6405 29.9969 15.9571 29.6802 16.2738 29.3635C16.4321 29.2052 17.8571 27.7802 19.4405 26.1969L26.0905 31.1052C27.3571 31.7385 28.1488 31.4219 28.4655 29.9969L32.8988 9.2552C33.3738 7.51353 32.2655 6.56353 31.1571 7.19686ZM27.8321 11.9469L15.4821 23.1885L15.0071 28.4135L12.4738 20.8135L27.0405 11.6302C27.6738 11.1552 28.3071 11.4719 27.8321 11.9469Z" fill="white"/>
</g>
<defs>
<clipPath id="clip0_9_28">
<rect width="38" height="38" fill="white"/>
</clipPath>
</defs>
</svg>
